inDegrees=no
num_controls=7
num_derivatives=13
num_iterations=164
num_multipliers=7
num_parameters=0
num_slacks=7
num_states=26
objective=6.097635
objective_accelerations=0.551106
objective_balance=0.019086
objective_effort=0.492864
objective_height=5.011433
objective_ligament=0.023146
solver_duration=1410.442592
status=Solve_Succeeded
success=true
DataType=double
version=3
OpenSimVersion=4.4-2022-07-23-0e9fedc
endheader
time	/jointset/ground_pelvis/pelvis_tilt/value	/jointset/ground_pelvis/pelvis_tx/value	/jointset/ground_pelvis/pelvis_ty/value	/jointset/hip_r/hip_flexion_r/value	/jointset/hip_r/hip_adduction_r/value	/jointset/hip_r/hip_rotation_r/value	/jointset/back/lumbar_extension/value	/jointset/patellofemoral_r/patellar_flexion_r/value	/jointset/knee_r/knee_flexion_r/value	/jointset/knee_r/knee_adduction_r/value	/jointset/knee_r/knee_rotation_r/value	/jointset/ankle_r/ankle_angle_r/value	/jointset/subtalar_r/subtalar_angle_r/value	/jointset/ground_pelvis/pelvis_tilt/speed	/jointset/ground_pelvis/pelvis_tx/speed	/jointset/ground_pelvis/pelvis_ty/speed	/jointset/hip_r/hip_flexion_r/speed	/jointset/hip_r/hip_adduction_r/speed	/jointset/hip_r/hip_rotation_r/speed	/jointset/back/lumbar_extension/speed	/jointset/patellofemoral_r/patellar_flexion_r/speed	/jointset/knee_r/knee_flexion_r/speed	/jointset/knee_r/knee_adduction_r/speed	/jointset/knee_r/knee_rotation_r/speed	/jointset/ankle_r/ankle_angle_r/speed	/jointset/subtalar_r/subtalar_angle_r/speed	/forceset/tau_hip_flexion_r	/forceset/tau_hip_adduction_r	/forceset/tau_hip_rotation_r	/forceset/tau_knee_flexion_r	/forceset/tau_ankle_angle_r	/forceset/tau_subtalar_angle_r	/forceset/tau_lumbar_extension	lambda_cid13_p0	lambda_cid14_p0	lambda_cid14_p1	lambda_cid14_p2	lambda_cid14_p3	lambda_cid14_p4	lambda_cid14_p5	/jointset/ground_pelvis/pelvis_tilt/accel	/jointset/ground_pelvis/pelvis_tx/accel	/jointset/ground_pelvis/pelvis_ty/accel	/jointset/hip_r/hip_flexion_r/accel	/jointset/hip_r/hip_adduction_r/accel	/jointset/hip_r/hip_rotation_r/accel	/jointset/back/lumbar_extension/accel	/jointset/patellofemoral_r/patellar_flexion_r/accel	/jointset/knee_r/knee_flexion_r/accel	/jointset/knee_r/knee_adduction_r/accel	/jointset/knee_r/knee_rotation_r/accel	/jointset/ankle_r/ankle_angle_r/accel	/jointset/subtalar_r/subtalar_angle_r/accel	gamma_cid13_p0	gamma_cid14_p0	gamma_cid14_p1	gamma_cid14_p2	gamma_cid14_p3	gamma_cid14_p4	gamma_cid14_p5
1.5	-0.151366826330799	0.03625630945950171	0.8484568224997068	0.7982847209213515	-0.2253817169134247	-0.1334357561362477	-0.2916629876386558	0.7306035574532804	0.7306035574532057	0.02082569462880014	0.1745282165580104	0.2580401565011538	0.06133978385308642	0.3405763413017068	0.1655025268546477	0.4241691223219842	-1.801532122345331	0.007647953281980322	-0.2739498397692288	0.7014048098867519	-1.983434151320993	-1.983434151321082	0.3499434792530526	-7.287507479808766e-05	-0.6236519203411075	-0.1709980931994704	-0.09376112648719417	-0.02504990441686072	0.01049453143870557	-0.3412595844413249	0.08136203586567389	-0.007507943477843485	0.1418003082059621	-29.54171285953136	-14.91896094718057	-2.160909172771403	-3.435512183332338	-0.5811343487448986	-653.5380377788759	62.24946589425222	0.2210200204826099	0.4317233718554869	-0.5775091538301033	-0.9537964688463653	-0.07551790008183154	-0.5844798806344511	1.426038806747274	-1.089043345016636	-1.089043345016629	0.4536811659802125	-0.08543078862166679	-0.5029287407324534	-0.0940932109241871	2.496423741472304e-08	-3.458475769404441e-07	-2.71613072448642e-06	-2.585716840352048e-06	5.137303039743173e-07	-2.56627978837409e-07	-6.40390385139502e-07
1.51	-0.1479505023144531	0.03793263066896554	0.8526687099088964	0.7802242758858838	-0.2253085864080548	-0.13620953641609	-0.2845787227777405	0.7107175436031961	0.7107175436031428	0.02434383103674856	0.1745268634642987	0.2517794682351212	0.05962606796645566	0.342639787349414	0.1697304746844167	0.4181171049427412	-1.810295510067194	0.00699520927839822	-0.2808754471653184	0.7153376621315904	-1.993472708416509	-1.993472708416549	0.3536000306980004	-0.0001396924624810593	-0.6283902253318961	-0.1716926823632908	-0.08760769823907144	-0.02574885952232558	0.009652788181474234	-0.3368894301409664	0.08399282225401843	-0.008583856469774062	0.1360876565583095	-30.70686945734492	-13.90653355890957	-2.366359073637279	-3.499336002058906	-0.80839176339732	-649.4331397636928	61.64589560002156	0.1916844953168252	0.4137288554749885	-0.6327701835165783	-0.7984330253531692	-0.05812965682636601	-0.7570666301943292	1.360333408275142	-0.9168834987138287	-0.9168834987063967	0.3086307122213303	0.04100844217053002	-0.4448836899806445	-0.04989396341886386	3.537899981199897e-08	-2.92839359327878e-07	-2.497603031586131e-06	-2.207294952475646e-06	4.532513688678237e-07	-1.99346688664307e-07	-5.837224000765163e-07
1.52	-0.1445150083179607	0.03965031103011411	0.8568173327135852	0.7620840323528867	-0.2252415787439854	-0.1390546658621114	-0.2773584443993953	0.6907400198607631	0.6907400198607629	0.0278959306748428	0.1745265053277844	0.2454742764568347	0.05790685574932513	0.3444103373332241	0.1737743571915931	0.4115162014218018	-1.817491821848918	0.006423385021607406	-0.2882196730053356	0.7286075133733629	-2.001736129787803	-2.001736129787794	0.3567361252817181	0.0001261163903251107	-0.6325526227918226	-0.1720973592994279	-0.08145426999097044	-0.02644781462777776	0.008811044924377341	-0.3325192758406061	0.08662360864237056	-0.009659769461687503	0.1303750049106296	-31.85580451428958	-12.89854766421769	-2.572284838731735	-3.563426199588504	-1.029418324506183	-645.4058458151777	61.02379901419397	0.162440807702965	0.3949103073373012	-0.6872863821693727	-0.6403812808187513	-0.05933395072365828	-0.6682035694201149	1.29343860613394	-0.7340162001723005	-0.7340162001723011	0.3495897937342914	-0.0189055405236347	-0.3877472345596319	-0.03611076538750556	6.527333582496107e-08	-1.502818897825605e-07	-1.96926161809706e-06	-1.133105520251412e-06	3.058974392389392e-07	-4.995211957997924e-08	-6.577738671298811e-07
1.53	-0.1410633251220952	0.04140754489048705	0.8608972972211207	0.7438794013973291	-0.2251809001721497	-0.1419696275853881	-0.2700090007195178	0.6706886665778061	0.6706886665776728	0.03148215156254871	0.1745271121242584	0.2391300896991936	0.05618351242649488	0.3458640039656356	0.1776432425140697	0.4043945041037612	-1.823166865780843	0.005737553657048752	-0.2948167335510991	0.7411526542857796	-2.008239622492728	-2.008239622492739	0.3604134197578999	1.743968632763292e-05	-0.6361772914017664	-0.172506306979418	-0.0747175635635569	-0.02854961978540435	0.007910683105123582	-0.3292902709653379	0.09057017140166163	-0.01010313048389638	0.1242730529548443	-32.97621190453717	-11.45226818915509	-2.374549342347284	-3.751498868413463	-1.61230388827554	-641.6932386538123	61.34151627352616	0.1275028880973932	0.378489377483966	-0.7368748664093706	-0.4909156628053156	-0.06921669142193952	-0.6618100157782629	1.21576658593474	-0.56430874867241	-0.5643087486755016	0.3625973068182677	-0.00322166320119274	-0.3336992268389845	-0.03344526404860529	1.158647188045896e-07	8.742165994130433e-08	-1.111743126482412e-06	6.803369278423852e-07	6.623882793001531e-08	1.97312808347525e-07	-8.70714752056867e-07
1.54	-0.1375989706004946	0.04320258995064052	0.8649035920635175	0.7256260500597634	-0.2251262817063809	-0.1449518304578407	-0.2625379626800897	0.650581119779179	0.6505811197789427	0.03510230500146913	0.1745273575679527	0.2327528817449273	0.054458047927916	0.3469446024815529	0.1813365971476966	0.3967822683940608	-1.827235898249817	0.005211363808466969	-0.3016679028418131	0.7529263852837792	-2.01297483291845	-2.012974832918482	0.3635226355243981	5.384586779139131e-05	-0.6391568621167953	-0.172521594449157	-0.06798085713612531	-0.03065142494296053	0.007010321285959947	-0.3260612660900689	0.09451673416097384	-0.01054649150601016	0.1181711009990615	-34.05985717046141	-10.01391330257734	-2.176928216841677	-3.941008685678244	-2.200129619105475	-638.1050213741383	61.73912915025831	0.08782718440371903	0.3598041695676456	-0.7853940605013097	-0.3191789882286951	-0.02740564752823108	-0.719025318410029	1.139156623250249	-0.3803597443320245	-0.3803597443320343	0.2359740517975824	0.01011103656838677	-0.2587276555762939	0.04262127666290475	1.533589146034119e-07	2.412036801590975e-07	-6.241346693240748e-07	1.856802630998392e-06	-8.07340313872983e-08	3.615765957788809e-07	-1.069248691731585e-06
1.55	-0.1341256306687872	0.04503364618849106	0.868831401154017	0.7073398977979337	-0.2250766758211539	-0.1480021111190255	-0.2549529790471912	0.6304350471978196	0.6304350471977666	0.03875271826950766	0.1745279301456278	0.2263489349980101	0.0527335897308822	0.3476660318263136	0.1848405857400145	0.3887068044536677	-1.829732813221632	0.00471492019862356	-0.3083677058067382	0.7639457820402957	-2.015941451629656	-2.015941451629722	0.3665369543474645	5.747217928041431e-05	-0.641529442702346	-0.1723359773120103	-0.0615666355343781	-0.03207665351185377	0.006177711932314988	-0.3224912366073994	0.09798113022825469	-0.01161411709333296	0.1123428330239813	-35.10091369503944	-8.783391091879768	-2.329324842699106	-4.026158318204451	-2.57599029886584	-634.8316366354335	61.470795942278	0.0557254318104085	0.3405578542133956	-0.8294406811462479	-0.1756489159450215	-0.05963247171465989	-0.6420151915500814	1.064647313068452	-0.210115817605149	-0.2101158176102142	0.330774173301734	-0.004532024717951949	-0.2110629726469203	0.01185871753339545	1.757628729982629e-07	2.982935033372917e-07	-5.627269040392882e-07	2.299360345421768e-06	-1.209167851490669e-07	4.302086343777233e-07	-1.251183324919995e-06
1.56	-0.1306467915191732	0.04689871464229433	0.8726762919810416	0.6890366361535247	-0.2250318081228232	-0.1511187012910637	-0.2472615382244839	0.6102682478527386	0.6102682478528443	0.0424325974009266	0.1745285348958726	0.2199243545027166	0.05101205306227845	0.3480444460630366	0.1881390403382429	0.3801986156991434	-1.830657774764973	0.004263726428697702	-0.3149298050123239	0.7742178232454724	-2.017120185664506	-2.017120185664606	0.3694158082001527	6.028036448697778e-05	-0.6432836117919971	-0.1719372887631478	-0.05515241393267076	-0.03350188208075124	0.00534510257859366	-0.3189212071247645	0.1014455262955221	-0.01268174268066337	0.1065145650488875	-36.09349124168668	-7.561041186814995	-2.477318134899498	-4.118676016350165	-2.965122302530361	-631.7031676515185	61.31736283877068	0.01922416279536303	0.3186973707499656	-0.8719390233275227	-0.004788302533867817	-0.01835567954477292	-0.6914845665422388	0.9896855129817168	-0.02278280906087752	-0.02278280906087786	0.2088810577219251	0.009947411312015951	-0.1350453563960696	0.08523555900612317	1.940838482888813e-07	3.248243886153073e-07	-6.302766094830616e-07	2.507237278185034e-06	-1.284656032203599e-07	4.640165713587769e-07	-1.399568935055022e-06
1.57	-0.1271659520149057	0.04879570542558485	0.8764340264740537	0.6707320564627881	-0.2249912095884764	-0.154300679850117	-0.2394711381046464	0.5900986219576985	0.5900986219578312	0.0461402546570694	0.1745294867217518	0.2134853521794779	0.0492956069195191	0.3480635726481421	0.1912212510829186	0.3712855718492676	-1.829991274341015	0.003866244893286364	-0.3214280788921199	0.783729229298165	-2.016503606117626	-2.016503606117687	0.3720876120509886	0.0001131271370766419	-0.6444101091548436	-0.1713128875507061	-0.04869038072171353	-0.03532178363898225	0.004572946862920968	-0.3155862047327025	0.1050869336078581	-0.01379546960094142	0.1006856953462645	-37.03171420953287	-6.303818775308781	-2.637478972705209	-4.211249074387848	-3.344264152651753	-628.8769332147801	61.24004393007567	-0.01569934549281063	0.2972879248872946	-0.9103039846291167	0.142437720931902	-0.04861444156576619	-0.622949467333605	0.9119224373945338	0.1490434389240376	0.1490434389299182	0.2921305449775292	0.0008356296672490243	-0.08542509835586366	0.05702380841008027	2.073010946992088e-07	3.131566015181002e-07	-8.59023153337533e-07	2.421763233873164e-06	-9.522200167855872e-08	4.54294381317595e-07	-1.506018266373321e-06
